<svg width="50" height="51" viewBox="0 0 50 51" fill="none" xmlns="http://www.w3.org/2000/svg">
<path fill-rule="evenodd" clip-rule="evenodd" d="M37.6492 17.7387C37.5648 16.0762 36.192 14.7699 34.5273 14.7699C29.718 14.7699 20.282 14.7699 15.4727 14.7699C13.808 14.7699 12.4352 16.0762 12.3508 17.7387C12.059 23.6027 11.4068 36.6308 11.101 42.7387C11.0588 43.5933 11.3682 44.4293 11.9588 45.048C12.5477 45.6684 13.3668 46.0199 14.2229 46.0199C19.6352 46.0199 30.3648 46.0199 35.7771 46.0199C36.6332 46.0199 37.4523 45.6684 38.0412 45.048C38.6318 44.4293 38.9412 43.5933 38.899 42.7387C38.5932 36.6308 37.941 23.6027 37.6492 17.7387Z" fill="#FAFAFA"/>
<path fill-rule="evenodd" clip-rule="evenodd" d="M17.1875 13.2074H15.4734C12.975 13.2074 10.9156 15.1668 10.7906 17.6605C10.4984 23.5246 9.84688 36.5527 9.54063 42.6605C9.47656 43.9434 9.94219 45.1949 10.8266 46.1262C11.7109 47.0559 12.9391 47.5824 14.2219 47.5824H35.7781C37.0609 47.5824 38.2891 47.0559 39.1734 46.1262C40.0578 45.1949 40.5234 43.9434 40.4594 42.6605L39.2094 17.6605C39.0844 15.1668 37.025 13.2074 34.5266 13.2074H32.8125V10.0824C32.8125 5.76991 29.3125 2.26991 25 2.26991C20.6875 2.26991 17.1875 5.76991 17.1875 10.0824V13.2074ZM32.8125 16.3324V18.3137C33.7469 18.8543 34.375 19.8637 34.375 21.0199C34.375 22.7449 32.975 24.1449 31.25 24.1449C29.525 24.1449 28.125 22.7449 28.125 21.0199C28.125 19.8637 28.7531 18.8543 29.6875 18.3137V16.3324H20.3125V18.3137C21.2469 18.8543 21.875 19.8637 21.875 21.0199C21.875 22.7449 20.475 24.1449 18.75 24.1449C17.025 24.1449 15.625 22.7449 15.625 21.0199C15.625 19.8637 16.2531 18.8543 17.1875 18.3137V16.3324H15.4734C14.6406 16.3324 13.9531 16.9855 13.9125 17.8168L12.6625 42.8168C12.6406 43.2449 12.7953 43.6621 13.0906 43.9715C13.3859 44.2824 13.7953 44.4574 14.2234 44.4574H35.7781C36.2047 44.4574 36.6141 44.2824 36.9094 43.9715C37.2047 43.6621 37.3594 43.2449 37.3375 42.8168L36.0875 17.8168C36.0469 16.9855 35.3594 16.3324 34.5266 16.3324H32.8125ZM29.6875 13.2074V10.0824C29.6875 7.49491 27.5875 5.39491 25 5.39491C22.4125 5.39491 20.3125 7.49491 20.3125 10.0824V13.2074H29.6875Z" fill="#212121"/>
</svg>
