<svg width="56" height="57" viewBox="0 0 56 57" fill="none" xmlns="http://www.w3.org/2000/svg">
<g clip-path="url(#clip0_68_278)">
<path d="M21.5052 15.804C21.1743 15.1478 20.6321 14.6056 19.9759 14.2746C15.7524 12.1443 11.6443 16.2524 13.7751 20.4762C14.1059 21.1323 14.648 21.6742 15.3044 22.0048C19.5278 24.1356 23.636 20.0277 21.5052 15.804V15.804ZM14.1597 24.2761C13.0172 23.7009 12.0801 22.7639 11.5041 21.6216C8.26823 15.2074 14.7074 8.76838 21.1213 12.0036C22.2634 12.5796 23.2003 13.5163 23.7762 14.6585C27.012 21.0727 20.5726 27.5117 14.1597 24.2761V24.2761ZM42.1783 22.5945C42.5298 22.5945 42.8146 22.3097 42.8146 21.9582V14.3218C42.8146 13.9703 42.5298 13.6855 42.1783 13.6855H34.542C34.1904 13.6855 33.9056 13.9703 33.9056 14.3218V21.9582C33.9056 22.3097 34.1904 22.5945 34.542 22.5945H42.1783ZM42.1783 25.14H34.542C32.7846 25.14 31.3601 23.7155 31.3601 21.9581V14.3218C31.3601 12.5644 32.7846 11.14 34.542 11.14H42.1783C43.9357 11.14 45.3601 12.5644 45.3601 14.3218V21.9581C45.3601 23.7155 43.9357 25.14 42.1783 25.14ZM44.9839 43.1043C45.4879 43.6089 45.4852 44.4245 44.9778 44.9257C44.4704 45.427 43.6505 45.4243 43.1465 44.9196L32.8563 34.6156C32.3523 34.1109 32.3551 33.2954 32.8625 32.7941C33.3698 32.2929 34.1897 32.2955 34.6938 32.8003L44.9839 43.1043Z" fill="black"/>
<path d="M43.1644 32.7962C43.6691 32.2922 44.4847 32.2949 44.9859 32.8023C45.4872 33.3097 45.4845 34.1296 44.9798 34.6336L34.6758 44.9238C34.1711 45.4278 33.3556 45.4251 32.8543 44.9177C32.3531 44.4103 32.3557 43.5904 32.8604 43.0864L43.1644 32.7962ZM24.4384 43.9502C25.0373 45.1382 24.2375 46.42 22.899 46.42H12.3813C11.0428 46.42 10.243 45.1381 10.8419 43.9501L16.1704 33.3814C16.8166 32.0995 18.4636 32.0995 19.1099 33.3814L24.4384 43.9502ZM17.6401 36.2971L13.8512 43.8122H21.4291L17.6401 36.2971Z" fill="black"/>
<path d="M48.1861 53.8954C51.0632 53.8954 53.3954 51.5632 53.3954 48.6861V8.31394C53.3954 5.43721 51.063 3.10463 48.1861 3.10463H7.81397C4.93708 3.10463 2.60466 5.43721 2.60466 8.31394V48.6861C2.60466 51.5632 4.93686 53.8954 7.81397 53.8954H48.1861ZM48.1861 56.5H7.81397C3.49836 56.5 0 53.0017 0 48.6861V8.31394C0 3.99877 3.49852 0.499969 7.81397 0.499969H48.1861C52.5015 0.499969 56.0001 3.99877 56.0001 8.31394V48.6861C56.0001 53.0017 52.5018 56.5 48.1861 56.5Z" fill="black"/>
</g>
<defs>
<clipPath id="clip0_68_278">
<rect width="56" height="56" fill="white" transform="translate(0 0.5)"/>
</clipPath>
</defs>
</svg>
