<svg width="50" height="50" viewBox="0 0 50 50" fill="none" xmlns="http://www.w3.org/2000/svg">
<g clip-path="url(#clip0_41_870)">
<path d="M25 0C11.1923 0 0 11.1923 0 25C0 38.8077 11.1923 50 25 50C38.8077 50 50 38.8077 50 25C50 11.1923 38.8077 0 25 0ZM25 46.0938C13.3499 46.0938 3.90625 36.6501 3.90625 25C3.90625 13.3499 13.3499 3.90625 25 3.90625C36.6501 3.90625 46.0938 13.3499 46.0938 25C46.0938 36.6501 36.6501 46.0938 25 46.0938Z" fill="black"/>
<path d="M23.4375 22.9156L24.0463 31.25H25.9552L26.5625 22.8394V12.5H23.4375V22.9156Z" fill="black"/>
<path d="M26.5625 34.375H23.4375V37.5H26.5625V34.375Z" fill="black"/>
</g>
<defs>
<clipPath id="clip0_41_870">
<rect width="50" height="50" fill="white"/>
</clipPath>
</defs>
</svg>
