<svg width="145" height="145" viewBox="0 0 145 145" fill="none" xmlns="http://www.w3.org/2000/svg">
<g clip-path="url(#clip0_12_193)">
<path d="M116.709 56.5364C114.887 56.5364 113.408 58.0152 113.408 59.8374C113.408 61.6596 114.887 63.1384 116.709 63.1384C118.531 63.1384 120.01 61.6596 120.01 59.8374C120.01 58.0152 118.531 56.5364 116.709 56.5364Z" fill="black"/>
<path d="M110.437 50.2642C108.615 50.2642 107.136 51.743 107.136 53.5653C107.136 55.3875 108.615 56.8663 110.437 56.8663C112.26 56.8663 113.738 55.3875 113.738 53.5653C113.738 51.7433 112.26 50.2642 110.437 50.2642Z" fill="black"/>
<path d="M110.437 62.8083C108.615 62.8083 107.136 64.2871 107.136 66.1093C107.136 67.9315 108.615 69.4103 110.437 69.4103C112.26 69.4103 113.738 67.9315 113.738 66.1093C113.738 64.2871 112.26 62.8083 110.437 62.8083Z" fill="black"/>
<path d="M104.165 56.5364C102.343 56.5364 100.864 58.0152 100.864 59.8374C100.864 61.6596 102.343 63.1384 104.165 63.1384C105.988 63.1384 107.467 61.6596 107.467 59.8374C107.467 58.0152 105.988 56.5364 104.165 56.5364Z" fill="black"/>
<path d="M143.908 94.5872C143.007 86.1362 141.17 76.9498 138.446 67.2838C137.952 65.5293 136.13 64.5067 134.373 65.002C132.619 65.4964 131.597 67.3198 132.091 69.0748C134.715 78.3844 136.482 87.2036 137.343 95.287C138.295 104.223 136.765 111.021 132.916 114.949C131.875 116.011 130.488 116.581 128.978 116.553C127.461 116.524 126.064 115.89 125.045 114.768C112.938 101.445 103.498 94.6896 96.9854 94.6896H47.4702C40.9576 94.6896 31.5175 101.445 19.4108 114.769C18.3915 115.891 16.9948 116.524 15.4775 116.553C13.9762 116.58 12.5812 116.011 11.5386 114.948C7.69024 111.022 6.15996 104.223 7.11255 95.2867C9.00002 77.5688 14.7842 60.4244 18.0644 51.7818C19.055 49.1707 20.9048 46.9266 23.2794 45.4593C23.6751 45.2135 24.0944 44.9854 24.5245 44.7821C30.0572 42.169 39.9595 38.7408 55.7128 37.2505C60.9137 36.7586 66.4698 36.5091 72.2273 36.5091C77.9847 36.5091 83.5408 36.7586 88.7414 37.2502C104.496 38.7414 114.398 42.169 119.93 44.7821C120.361 44.9854 120.779 45.2135 121.182 45.4633C123.55 46.9266 125.4 49.1704 126.39 51.7818C126.891 53.1009 128.145 53.9126 129.477 53.9126C129.867 53.9126 130.262 53.8434 130.648 53.6971C132.352 53.0506 133.21 51.1445 132.563 49.4399C131.291 46.0862 129.081 43.134 126.255 40.9596V34.7364C126.255 29.9118 122.831 25.6799 118.114 24.675L103.369 21.5297C99.9436 20.7974 96.421 21.8402 93.9468 24.3195L87.7374 30.5345C82.8056 30.1191 77.5983 29.9073 72.2276 29.9073C66.8568 29.9073 61.6495 30.1197 56.7177 30.5348L50.5094 24.3197C48.0344 21.8405 44.5112 20.7979 41.0873 21.5292L26.3422 24.6744C21.6239 25.6799 18.2 29.9116 18.2 34.7358V40.9596C15.3726 43.1362 13.1639 46.0874 11.8921 49.4393C8.49911 58.3791 2.51411 76.1325 0.548175 94.587C-0.637575 105.706 1.47405 114.111 6.82343 119.569C9.15021 121.944 12.2769 123.209 15.6026 123.154C18.9076 123.092 22.077 121.653 24.298 119.208C36.301 105.998 44.1386 101.292 47.4705 101.292H96.986C100.319 101.292 108.156 105.999 120.158 119.207C122.379 121.653 125.549 123.092 128.854 123.154C128.933 123.156 129.012 123.157 129.09 123.157C132.335 123.156 135.361 121.888 137.632 119.57C142.982 114.11 145.094 105.706 143.908 94.5872ZM98.6189 28.9834C99.504 28.0966 100.763 27.7231 101.991 27.9856L116.738 31.1311C118.427 31.4913 119.654 33.0073 119.654 34.7358V37.4566C114.391 35.3175 106.708 32.9735 96.1301 31.4745L98.6189 28.9834ZM24.8021 34.7358C24.8021 33.0073 26.0286 31.4913 27.7189 31.1311L42.466 27.9853C43.6922 27.7229 44.9516 28.0969 45.8381 28.9846L48.3258 31.4745C37.748 32.9732 30.0648 35.3172 24.8021 37.4564V34.7358Z" fill="black"/>
<path d="M135.72 58.3648L135.512 57.7339C134.938 56.0031 133.069 55.066 131.34 55.64C129.609 56.214 128.672 58.0821 129.246 59.8126L129.45 60.4291C129.907 61.8182 131.198 62.6988 132.584 62.6988C132.926 62.6988 133.275 62.6451 133.617 62.532C135.349 61.9622 136.291 60.0964 135.72 58.3648Z" fill="black"/>
<path d="M89.6673 67.0993C82.7505 67.0993 77.1233 72.7265 77.1233 79.6433C77.1233 86.5601 82.7505 92.1873 89.6673 92.1873C96.5841 92.1873 102.211 86.5601 102.211 79.6433C102.211 72.7265 96.5838 67.0993 89.6673 67.0993ZM89.6673 85.585C86.391 85.585 83.7254 82.9193 83.7254 79.643C83.7254 76.3667 86.3913 73.7011 89.6673 73.7011C92.9436 73.7011 95.6093 76.3667 95.6093 79.643C95.6093 82.9193 92.9436 85.585 89.6673 85.585Z" fill="black"/>
<path d="M59.7502 76.3423H56.7793V73.3714C56.7793 71.5487 55.3011 70.0704 53.4783 70.0704C51.6555 70.0704 50.1773 71.5487 50.1773 73.3714V76.3423H47.2064C45.3836 76.3423 43.9054 77.8205 43.9054 79.6433C43.9054 81.4661 45.3836 82.9443 47.2064 82.9443H50.1773V85.9152C50.1773 87.7382 51.6552 89.2162 53.4783 89.2162C55.3011 89.2162 56.7793 87.738 56.7793 85.9152V82.9443H59.7502C61.573 82.9443 63.0512 81.4661 63.0512 79.6433C63.0512 77.8202 61.5732 76.3423 59.7502 76.3423Z" fill="black"/>
<path d="M35.352 47.2931C28.4352 47.2931 22.808 52.9203 22.808 59.8371C22.808 66.7539 28.4352 72.3812 35.352 72.3812C42.2688 72.3812 47.896 66.7539 47.896 59.8371C47.896 52.9203 42.2688 47.2931 35.352 47.2931ZM35.352 65.7788C32.0757 65.7788 29.41 63.1131 29.41 59.8368C29.41 56.5606 32.0757 53.8949 35.352 53.8949C38.6283 53.8949 41.294 56.5606 41.294 59.8368C41.294 63.1131 38.6283 65.7788 35.352 65.7788Z" fill="black"/>
<path d="M65.6258 52.2445H60.6744C58.8516 52.2445 57.3734 53.7228 57.3734 55.5455C57.3734 57.3683 58.8516 58.8466 60.6744 58.8466H65.6258C67.4489 58.8466 68.9268 57.3686 68.9268 55.5455C68.9268 53.7228 67.4486 52.2445 65.6258 52.2445Z" fill="black"/>
<path d="M83.7816 52.2445H78.8299C77.0071 52.2445 75.5289 53.7228 75.5289 55.5455C75.5289 57.3683 77.0071 58.8466 78.8299 58.8466H83.7816C85.6047 58.8466 87.0826 57.3686 87.0826 55.5455C87.0826 53.7228 85.6044 52.2445 83.7816 52.2445Z" fill="black"/>
</g>
<defs>
<clipPath id="clip0_12_193">
<rect width="144" height="144" fill="white" transform="translate(0.228119 0.228149)"/>
</clipPath>
</defs>
</svg>
