<svg width="141" height="140" viewBox="0 0 141 140" fill="none" xmlns="http://www.w3.org/2000/svg">
<path d="M95.2064 0H78.4072V10.9774H95.2064V0Z" fill="black"/>
<path d="M73.7006 0H44.2465V10.9774H73.7006V0Z" fill="black"/>
<path d="M129.365 0H99.4641V10.9774H129.365V0Z" fill="black"/>
<path d="M90.3188 14.1127H83.2953V44.9679H90.3188V14.1127Z" fill="black"/>
<path d="M128.095 14.1127H107.497C107.503 16.4002 107.712 20.0208 109.072 23.5982C110.487 27.2776 112.994 30.8621 117.914 33.2651C120.775 34.6525 124.5 35.6341 129.365 35.8676V15.3844C129.365 14.682 128.798 14.1127 128.095 14.1127Z" fill="black"/>
<path d="M62.7144 27.2076C65.7252 22.6508 66.1127 17.1872 66.1152 14.1127H45.5185C44.8179 14.1127 44.2465 14.682 44.2465 15.3847V35.8679C49.112 35.6344 52.839 34.6527 55.6999 33.2653C58.9918 31.6646 61.1772 29.5359 62.7144 27.2076Z" fill="black"/>
<path d="M107.433 29.4859C103.699 23.7798 103.37 17.4817 103.35 14.1127H94.4673V47.04C94.4673 47.5888 94.245 48.1215 93.8595 48.507C93.4718 48.8947 92.9391 49.1168 92.3906 49.1168H81.2228C80.6743 49.1168 80.1414 48.8945 79.7537 48.507C79.3684 48.1215 79.1461 47.5888 79.1461 47.04V14.1127H70.2659C70.2544 16.6269 70.0548 20.7575 68.4202 25.0718C66.7632 29.4859 63.4759 34.1198 57.5087 36.9988C54.0218 38.6903 49.66 39.783 44.2462 40.0209V88.818H39.3041V63.3836C28.3064 63.184 14.3638 63.3836 14.3638 63.3836C13.3321 63.3473 12.3732 63.9163 11.913 64.8389C11.4506 65.7617 11.5728 66.8702 12.2214 67.6728L36.4316 97.5237H44.2462H82.3472L85.5437 60.2892C85.5981 59.6337 86.1469 59.1259 86.8067 59.1259C87.4641 59.1259 88.015 59.6337 88.0695 60.2892L94.8119 138.839C94.8709 139.497 95.4194 140 96.0793 140H128.095C128.798 140 129.365 139.431 129.365 138.73V40.0211C123.951 39.7833 119.594 38.6906 116.105 36.9991C112.137 35.0788 109.33 32.381 107.433 29.4859Z" fill="black"/>
</svg>
