<svg width="147" height="147" viewBox="0 0 147 147" fill="none" xmlns="http://www.w3.org/2000/svg">
<g clip-path="url(#clip0_12_182)">
<path d="M63.451 44.6767L40.1243 33.5863L18.4606 59.931L28.953 89.3218L42.3734 84.5308L58.3435 129.266L120.972 106.907L105.002 62.1726L118.423 57.3816L107.93 27.9908L74.4806 21.3212L63.451 44.6767ZM100.836 36.374L106.282 51.6286L92.8612 56.4197L108.831 101.154L64.0965 117.125L48.1264 72.3898L34.7059 77.1808L29.2282 61.8368L42.7172 45.3705L67.9545 57.2919L79.9206 32.0386L100.836 36.374Z" fill="black"/>
<path d="M88.3877 58.0167L74.9673 62.8077L78.1613 71.7547L91.5818 66.9636L88.3877 58.0167Z" fill="black"/>
</g>
<defs>
<clipPath id="clip0_12_182">
<rect width="114" height="114" fill="white" transform="translate(0.841919 38.834) rotate(-19.6463)"/>
</clipPath>
</defs>
</svg>
