<svg width="144" height="145" viewBox="0 0 144 145" fill="none" xmlns="http://www.w3.org/2000/svg">
<path d="M129.595 34.7759H125.037C123.249 34.7759 121.799 36.2252 121.799 38.0131C121.799 39.801 123.249 41.2503 125.037 41.2503H129.595C131.382 41.2503 132.832 39.801 132.832 38.0131C132.832 36.2252 131.382 34.7759 129.595 34.7759Z" fill="black"/>
<path d="M129.595 44.4877H125.037C123.249 44.4877 121.799 45.937 121.799 47.7249C121.799 49.5128 123.249 50.9621 125.037 50.9621H129.595C131.382 50.9621 132.832 49.5128 132.832 47.7249C132.832 45.937 131.382 44.4877 129.595 44.4877Z" fill="black"/>
<path d="M134.846 24.4165H72.7968C68.7934 24.4165 65.2373 26.3636 63.0225 29.3598H50.8772H37.8699H32.1658C25.8962 29.3598 20.6832 33.9619 19.723 39.9652H3.2372C1.44929 39.9652 0 41.4145 0 43.2024C0 44.9903 1.44929 46.4396 3.2372 46.4396H19.7222C20.681 52.4443 25.8951 57.0481 32.1656 57.0481H37.8696H50.8769H63.0233C65.2382 60.0443 68.7937 61.9914 72.7968 61.9914H82.2173L79.5409 67.6006C78.3149 70.173 78.4907 73.1478 80.0117 75.5575C81.5319 77.9664 84.1405 79.4047 86.989 79.4047H93.5956L96.7858 86.1047C96.7872 86.1072 96.7883 86.1103 96.7897 86.1131L108.403 110.504L99.6844 114.649C98.0697 115.416 97.3829 117.347 98.1504 118.962C98.7048 120.128 99.8658 120.81 101.076 120.81C101.542 120.81 102.015 120.709 102.464 120.496L114.105 114.961C114.107 114.961 114.109 114.96 114.11 114.959C114.112 114.958 114.114 114.957 114.116 114.956L137.498 103.84C138.273 103.471 138.871 102.809 139.158 102C139.446 101.191 139.4 100.301 139.03 99.5249L130.648 81.9217C129.879 80.3073 127.947 79.6219 126.333 80.3908C124.719 81.1598 124.033 83.0914 124.802 84.7055L127.389 90.1379L120.703 92.9014L102.173 82.3613L90.2709 57.3628C90.265 57.3507 90.2574 57.3406 90.2515 57.3288C90.1975 57.218 90.1359 57.1114 90.0693 57.0073C90.0515 56.9795 90.0341 56.9519 90.0153 56.9252C89.8623 56.7016 89.6803 56.4963 89.471 56.3146C89.4471 56.2935 89.4224 56.2735 89.3979 56.2533C89.3096 56.1807 89.2171 56.1127 89.1195 56.0494C89.0995 56.0362 89.0804 56.0215 89.0598 56.0089C88.9577 55.9453 88.8526 55.8862 88.7417 55.8334C88.7297 55.8275 88.7173 55.8235 88.7052 55.8182C88.6754 55.8047 88.6447 55.7932 88.6146 55.7805C88.5145 55.7377 88.4138 55.7006 88.312 55.6686C88.2785 55.6582 88.2456 55.6475 88.2116 55.6382C87.9385 55.562 87.662 55.524 87.3867 55.5206C87.3735 55.5206 87.3608 55.5178 87.3476 55.5178H79.0926V41.5748H96.7357C97.8804 41.5748 98.9408 40.9701 99.5227 39.9843L104.896 30.8917H134.845C136.322 30.8917 137.525 32.0941 137.525 33.5723V52.8341C137.525 54.3138 136.323 55.5178 134.845 55.5178H116.03C114.919 55.5178 113.885 56.0876 113.292 57.0267C112.699 57.9661 112.629 59.1443 113.107 60.1472L116.693 67.676C117.462 69.2904 119.394 69.9755 121.007 69.2069C122.622 68.4379 123.307 66.5063 122.538 64.8922L121.157 61.9922H134.845C139.893 61.9922 144 57.8837 144 52.8338V33.5721C144.001 28.5233 139.894 24.4165 134.846 24.4165ZM34.6324 50.5737H32.1656C28.7866 50.5737 26.0374 47.8245 26.0374 44.4455V41.9626C26.0374 38.5837 28.7866 35.8345 32.1656 35.8345H34.6324V50.5737ZM47.6397 50.5737H41.1068V35.8345H47.6397V50.5737ZM60.647 36.566V49.8388V50.5737H54.1141V35.8345H60.647V36.566ZM118.878 99.3114C119.372 99.5924 119.924 99.735 120.479 99.735C120.898 99.735 121.318 99.6537 121.715 99.4897L130.178 95.9918L131.793 99.3843L114.251 107.724L107.039 92.5777L118.878 99.3114ZM85.385 70.3878L87.3456 66.2788L90.5131 72.9303H86.989C86.1053 72.9303 85.6443 72.3513 85.4868 72.1023C85.3293 71.8526 85.0045 71.186 85.385 70.3878ZM94.889 35.0995H75.8557C74.068 35.0995 72.6185 36.5488 72.6185 38.3367V55.508C69.5722 55.4129 67.1217 52.9098 67.1217 49.8388V36.566C67.1217 33.4368 69.6676 30.8912 72.7968 30.8912H97.3762L94.889 35.0995Z" fill="black"/>
<path d="M126.867 73.98L126.51 73.229C125.741 71.6149 123.81 70.9293 122.195 71.6979C120.581 72.4666 119.895 74.3982 120.664 76.0126L121.021 76.7635C121.576 77.9288 122.737 78.6099 123.947 78.6099C124.413 78.6099 124.887 78.5087 125.336 78.2947C126.95 77.5263 127.635 75.5947 126.867 73.98Z" fill="black"/>
</svg>
