<svg width="141" height="140" viewBox="0 0 141 140" fill="none" xmlns="http://www.w3.org/2000/svg">
<g clip-path="url(#clip0_17_524)">
<path d="M132.112 130.17L101.268 69.6629C98.5774 64.379 98.0757 58.2466 99.8738 52.5954L104.661 37.5539C105.346 35.396 107.336 33.9183 109.6 33.8899L119.055 33.7657C121.358 33.7373 123.374 32.2107 124.028 30.0035L128.808 13.8726C129.622 11.1273 128.088 8.23705 125.361 7.36751L105.515 1.05658C98.8826 -1.05217 91.6452 0.132904 86.0327 4.24978L70.4995 15.6401L54.925 4.21861C49.336 0.11978 42.1323 -1.07569 35.5211 0.999701L15.1886 7.38037C12.4484 8.24197 10.9062 11.1377 11.7211 13.8906L16.4926 30.0008C17.1472 32.2107 19.163 33.7373 21.4659 33.7657L31.3968 33.8899C33.6609 33.921 35.6534 35.396 36.3417 37.5539L41.1288 52.5979C42.9244 58.2466 42.4224 64.379 39.7315 69.6604L8.88801 130.17C7.82215 132.266 7.91785 134.765 9.14695 136.771C10.3758 138.776 12.5595 140 14.9116 140H126.088C128.44 140 130.624 138.776 131.853 136.771C133.083 134.765 133.178 132.266 132.112 130.17Z" fill="black"/>
</g>
<defs>
<clipPath id="clip0_17_524">
<rect width="140" height="140" fill="white" transform="translate(0.5)"/>
</clipPath>
</defs>
</svg>
