<svg width="141" height="140" viewBox="0 0 141 140" fill="none" xmlns="http://www.w3.org/2000/svg">
<g clip-path="url(#clip0_17_494)">
<path d="M94.5164 86.7971C92.5403 86.7971 90.9363 88.3973 90.9363 90.3772C90.9363 92.3534 92.54 93.9573 94.5164 93.9573C96.4961 93.9573 98.0965 92.3534 98.0965 90.3772C98.0965 88.3973 96.4961 86.7971 94.5164 86.7971Z" fill="black"/>
<path d="M85.2693 96.0442C83.2932 96.0442 81.6892 97.6479 81.6892 99.6243C81.6892 101.601 83.2929 103.204 85.2693 103.204C87.2457 103.204 88.8494 101.601 88.8494 99.6243C88.8494 97.6479 87.2454 96.0442 85.2693 96.0442Z" fill="black"/>
<path d="M107.637 0H33.363C27.9799 0 23.6005 4.37937 23.6005 9.76307V130.237C23.6005 135.62 27.9799 140 33.363 140H98.7481C109.033 140 117.4 131.633 117.4 121.348V9.76307C117.4 4.37937 113.02 0 107.637 0ZM110.24 121.347C110.24 127.684 105.085 132.84 98.7481 132.84H33.363C31.9277 132.84 30.7604 131.672 30.7604 130.237V9.76307C30.7604 8.3278 31.9277 7.15995 33.363 7.15995H107.637C109.073 7.15995 110.24 8.3278 110.24 9.76307V121.347Z" fill="black"/>
<path d="M99.1418 16.6577H41.8582C39.8809 16.6577 38.278 18.2609 38.278 20.2378V71.0739C38.278 73.0508 39.8809 74.654 41.8582 74.654H99.1416C101.119 74.654 102.722 73.0508 102.722 71.0739V20.2376C102.722 18.2609 101.119 16.6577 99.1418 16.6577ZM95.5617 67.4938H45.4383V23.8177H95.5617V67.4938Z" fill="black"/>
<path d="M64.2368 119.224H59.0065C57.0292 119.224 55.4264 120.828 55.4264 122.805C55.4264 124.782 57.0292 126.385 59.0065 126.385H64.2368C66.214 126.385 67.8169 124.782 67.8169 122.805C67.8169 120.828 66.214 119.224 64.2368 119.224Z" fill="black"/>
<path d="M81.9976 119.224H76.7673C74.7901 119.224 73.1872 120.828 73.1872 122.805C73.1872 124.782 74.7901 126.385 76.7673 126.385H81.9976C83.9748 126.385 85.5777 124.782 85.5777 122.805C85.5777 120.828 83.9746 119.224 81.9976 119.224Z" fill="black"/>
<path d="M59.7617 89.9296H55.4658V85.63C55.4658 83.6531 53.8629 82.0499 51.8856 82.0499C49.9084 82.0499 48.3055 83.6531 48.3055 85.63V89.9296H44.006C42.0288 89.9296 40.4259 91.5327 40.4259 93.5097C40.4259 95.4866 42.0288 97.0898 44.006 97.0898H48.3055V101.386C48.3055 103.363 49.9084 104.966 51.8856 104.966C53.8629 104.966 55.4658 103.363 55.4658 101.386V97.0898H59.7617C61.7389 97.0898 63.3418 95.4866 63.3418 93.5097C63.3418 91.5327 61.7389 89.9296 59.7617 89.9296Z" fill="black"/>
</g>
<defs>
<clipPath id="clip0_17_494">
<rect width="140" height="140" fill="white" transform="translate(0.5)"/>
</clipPath>
</defs>
</svg>
