<svg width="221" height="100" viewBox="0 0 221 100" fill="none" xmlns="http://www.w3.org/2000/svg">
<g clip-path="url(#clip0_62_2)">
<path d="M69.923 28.8827L62.394 33.4823L54.9331 24.8765C52.4693 22.324 48.8026 21.3308 45.3871 22.2903C43.6674 22.7058 42.0184 23.3709 40.4913 24.2643L31.2755 29.8944C29.7836 30.8454 28.4392 32.0091 27.2846 33.3495C24.8719 35.9506 24.0821 39.6664 25.2286 43.0236L29.4804 53.5899L21.9515 58.1896C20.8113 58.8765 20.444 60.358 21.1312 61.4986C21.2604 61.7129 21.4218 61.9058 21.6104 62.0703L45.1799 83.2644C47.5578 85.3405 51.0077 85.634 53.7023 83.9901L78.3875 68.9093C81.054 67.2537 82.3481 64.0665 81.5905 61.0203L73.4904 30.3756C73.1694 29.0835 71.8616 28.2966 70.5695 28.6176C70.3424 28.6739 70.1247 28.7634 69.923 28.8827ZM33.6769 51.0262L29.7038 41.1936C29.1247 39.4993 29.6335 37.6235 30.9889 36.4537C31.8072 35.5153 32.7489 34.6931 33.789 34.0086L43.0048 28.3785C44.0998 27.7535 45.2756 27.2821 46.4994 26.9779C48.1589 26.3059 50.0602 26.7094 51.3034 27.9979L58.1975 36.046L33.5124 51.1268L33.6769 51.0262Z" fill="#FFC107"/>
</g>
<path d="M52.6745 38.7455H58.5273V47.464C60.1418 46.0109 62.1062 45.2709 64.4204 45.244C64.4473 45.244 64.4876 45.244 64.5415 45.244C67.4745 45.244 69.9502 46.3069 71.9684 48.4327C73.9865 50.5585 74.9956 53.1822 74.9956 56.3036C74.9956 59.3444 73.9865 61.9411 71.9684 64.0938C69.9771 66.2465 67.4611 67.3229 64.4204 67.3229C62.1062 67.3229 60.1418 66.6233 58.5273 65.224V67H52.6745V38.7455ZM59.8189 60.2996C60.9491 61.4567 62.2945 62.0353 63.8553 62.0353C65.3891 62.0353 66.7211 61.4702 67.8513 60.34C68.9815 59.1829 69.5465 57.8375 69.5465 56.3036C69.5465 54.7429 68.9815 53.3975 67.8513 52.2673C66.748 51.1102 65.416 50.5316 63.8553 50.5316C62.2945 50.5316 60.9491 51.1102 59.8189 52.2673C58.6887 53.4244 58.1236 54.7698 58.1236 56.3036C58.1236 57.8375 58.6887 59.1695 59.8189 60.2996ZM78.2124 45.6073H84.0652V57.3935C84.0652 58.7389 84.4688 59.8287 85.2761 60.6629C86.1102 61.4971 87.1193 61.9142 88.3033 61.9142C89.7295 61.9142 90.8732 61.4164 91.7343 60.4207C92.6223 59.3982 93.0663 58.1469 93.0663 56.6669V45.6073H98.919V67H93.0663V65.0222C91.4517 66.5829 89.4604 67.3633 87.0924 67.3633C84.6706 67.3633 82.5852 66.5964 80.8361 65.0625C79.087 63.5018 78.2124 61.4433 78.2124 58.8869V45.6073ZM101.549 45.6073H107.765L113.335 60.0171L118.623 45.6073H124.839L113.013 75.4764H106.958L110.349 66.8789L101.549 45.6073ZM137.534 38.7455L147.02 61.1876V38.7455H152.953V67H143.548L133.78 43.8313V67H127.847V38.7455H137.534ZM159.988 48.4327C162.14 46.3069 164.724 45.244 167.737 45.244C170.348 45.244 172.662 46.0782 174.68 47.7465C176.698 49.4149 177.976 51.5138 178.514 54.0433C178.703 54.8505 178.797 55.6309 178.797 56.3844C178.797 57.1109 178.716 57.8105 178.555 58.4833H162.49C162.813 59.6673 163.445 60.5822 164.387 61.228C165.329 61.8469 166.446 62.1564 167.737 62.1564C169.782 62.1564 171.464 61.5509 172.783 60.34L177.869 61.7931C177.034 63.4615 175.649 64.8069 173.711 65.8295C171.774 66.8251 169.782 67.3229 167.737 67.3229C164.67 67.3229 162.06 66.2465 159.907 64.0938C157.781 61.9142 156.718 59.3175 156.718 56.3036C156.718 53.2091 157.808 50.5855 159.988 48.4327ZM162.49 54.0433H172.864C172.541 53.0207 171.922 52.1596 171.007 51.46C170.092 50.7604 168.989 50.4105 167.697 50.4105C166.405 50.4105 165.289 50.7604 164.347 51.46C163.432 52.1596 162.813 53.0207 162.49 54.0433ZM179.216 67L185.715 56.3036L179.216 45.6073H185.674L190.235 53.0745L194.796 45.6073H201.255L194.756 56.3036L201.255 67H194.796L190.235 59.5327L185.674 67H179.216ZM203.147 45.6073H206.78V40.9251L212.552 39.2702V45.6073H218.728V50.6527H212.552V59.8153C212.552 60.3804 212.781 60.8513 213.238 61.228C213.696 61.6047 214.18 61.82 214.691 61.8738C215.23 61.9007 215.552 61.9142 215.66 61.9142C216.575 61.9142 217.692 61.6585 219.01 61.1473V66.7982C217.476 67.2287 216.05 67.444 214.732 67.444C213.09 67.444 211.355 66.9731 209.525 66.0313C207.695 65.0625 206.78 63.004 206.78 59.8556V50.6527H203.147V45.6073Z" fill="#212121"/>
<defs>
<clipPath id="clip0_62_2">
<rect width="72.3182" height="72.3182" fill="white" transform="translate(0 37.7019) rotate(-31.4217)"/>
</clipPath>
</defs>
</svg>
