<svg width="128" height="128" viewBox="0 0 128 128" fill="none" xmlns="http://www.w3.org/2000/svg">
<g clip-path="url(#clip0_12_228)">
<path d="M75.0389 6.72339L30.6563 16.0325C25.7979 17.0515 22.6741 21.8334 23.6932 26.6919L41.9618 113.791C42.9808 118.649 47.7627 121.773 52.6212 120.754L97.0038 111.445C101.862 110.426 104.986 105.644 103.967 100.785L85.6984 13.6866C84.6793 8.82807 79.8974 5.70434 75.0389 6.72339ZM95.9349 106.348L51.5523 115.658C49.5039 116.087 47.4876 114.77 47.058 112.722L28.7893 25.623C28.3597 23.5746 29.6768 21.5583 31.7252 21.1286L76.1078 11.8196C78.1562 11.3899 80.1726 12.7071 80.6022 14.7555L98.8708 101.854C99.3005 103.903 97.9833 105.919 95.9349 106.348Z" fill="black"/>
<path d="M67.9307 25.3699L66.9964 25.5658C65.5894 25.8609 64.6876 27.2414 64.9827 28.6484C65.2778 30.0553 66.6583 30.9571 68.0653 30.662L68.9996 30.466C70.4066 30.1709 71.3083 28.7905 71.0132 27.3835C70.7181 25.9765 69.3377 25.0748 67.9307 25.3699Z" fill="black"/>
<path d="M75.066 23.8733C73.6591 24.1684 72.7573 25.5488 73.0524 26.9558L86.5206 91.1675L54.0733 97.9732L41.1396 36.3095L61.1428 32.114C62.5498 31.8188 63.4516 30.4384 63.1565 29.0314C62.8613 27.6244 61.4809 26.7227 60.0739 27.0178L37.5226 31.7478C36.1157 32.0429 35.2139 33.4234 35.509 34.8304L49.5116 101.59C49.8067 102.997 51.1872 103.899 52.5942 103.604L90.1378 95.7292C91.5447 95.4341 92.4465 94.0536 92.1514 92.6466L78.1488 25.8868C77.8535 24.4799 76.4734 23.5781 75.066 23.8733Z" fill="black"/>
<path d="M59.3987 18.5138L49.716 20.5447C48.309 20.8398 47.4073 22.2202 47.7024 23.6272C47.9975 25.0342 49.3779 25.9359 50.7849 25.6408L60.4676 23.6099C61.8746 23.3148 62.7763 21.9344 62.4812 20.5274C62.1861 19.1204 60.8059 18.2186 59.3987 18.5138Z" fill="black"/>
<path d="M74.3272 102.371L69.7407 103.333C68.3337 103.628 67.432 105.008 67.7271 106.415C68.0222 107.822 69.4026 108.724 70.8096 108.429L75.3961 107.467C76.8031 107.172 77.7048 105.791 77.4097 104.384C77.1146 102.977 75.7346 102.076 74.3272 102.371Z" fill="black"/>
<path d="M90.8056 98.9144L86.2192 99.8764C84.8122 100.172 83.9104 101.552 84.2055 102.959C84.5006 104.366 85.8811 105.268 87.2881 104.973L91.8745 104.011C93.2815 103.715 94.1833 102.335 93.8882 100.928C93.593 99.5211 92.213 98.6192 90.8056 98.9144Z" fill="black"/>
<path d="M57.8487 105.827L53.2623 106.789C51.8553 107.084 50.9535 108.465 51.2486 109.872C51.5437 111.279 52.9242 112.18 54.3312 111.885L58.9176 110.923C60.3246 110.628 61.2264 109.248 60.9312 107.841C60.6361 106.434 59.2561 105.532 57.8487 105.827Z" fill="black"/>
</g>
<defs>
<clipPath id="clip0_12_228">
<rect width="107" height="107" fill="white" transform="translate(0.487015 22.3604) rotate(-11.8459)"/>
</clipPath>
</defs>
</svg>
