<svg width="50" height="50" viewBox="0 0 50 50" fill="none" xmlns="http://www.w3.org/2000/svg">
<path d="M29.7161 33.2032L26.2409 29.7571C24.564 28.094 23.7255 27.2625 22.7634 26.9586C21.9172 26.6913 21.0076 26.7011 20.1673 26.9867C19.2119 27.3115 18.3916 28.1609 16.7511 29.8596L8.42486 38.0836M29.7161 33.2032L30.4274 32.498C32.1063 30.833 32.9457 30.0005 33.909 29.6965C34.7561 29.4292 35.6663 29.4398 36.5072 29.7265C37.463 30.0523 38.2832 30.904 39.9234 32.6071L41.6663 34.3613M29.7161 33.2032L38.0726 41.5761M8.42486 38.0836C8.48951 38.6086 8.59959 39.0236 8.78715 39.3917C9.18661 40.1757 9.82403 40.8132 10.608 41.2125C11.4993 41.6667 12.6661 41.6667 14.9997 41.6667H34.9997C36.3628 41.6667 37.328 41.6667 38.0726 41.5761M8.42486 38.0836C8.33301 37.3377 8.33301 36.3698 8.33301 35V15C8.33301 12.6665 8.33301 11.4997 8.78715 10.6084C9.18661 9.82439 9.82403 9.18698 10.608 8.78752C11.4993 8.33337 12.6661 8.33337 14.9997 8.33337H34.9997C37.3332 8.33337 38.5001 8.33337 39.3913 8.78752C40.1753 9.18698 40.8128 9.82439 41.2122 10.6084C41.6663 11.4997 41.6663 12.6665 41.6663 15V34.3613M41.6663 34.3613V35C41.6663 37.3336 41.6663 38.5005 41.2122 39.3917C40.8128 40.1757 40.1753 40.8132 39.3913 41.2125C39.0207 41.4015 38.6024 41.5117 38.0726 41.5761M35.4163 18.7498C35.4163 21.0511 33.5509 22.9165 31.2497 22.9165C28.9484 22.9165 27.083 21.0511 27.083 18.7498C27.083 16.4486 28.9484 14.5831 31.2497 14.5831C33.5509 14.5831 35.4163 16.4486 35.4163 18.7498Z" stroke="black" stroke-width="4.16667" stroke-linecap="round" stroke-linejoin="round"/>
</svg>
